<svg width="29" height="18" viewBox="0 0 29 18" fill="none" xmlns="http://www.w3.org/2000/svg">
<path d="M7.27344 11.3086H2.71484V9.46875H7.27344C8.15625 9.46875 8.87109 9.32812 9.41797 9.04688C9.96484 8.76562 10.3633 8.375 10.6133 7.875C10.8711 7.375 11 6.80469 11 6.16406C11 5.57812 10.8711 5.02734 10.6133 4.51172C10.3633 3.99609 9.96484 3.58203 9.41797 3.26953C8.87109 2.94922 8.15625 2.78906 7.27344 2.78906H3.24219V18H0.980469V0.9375H7.27344C8.5625 0.9375 9.65234 1.16016 10.543 1.60547C11.4336 2.05078 12.1094 2.66797 12.5703 3.45703C13.0312 4.23828 13.2617 5.13281 13.2617 6.14062C13.2617 7.23438 13.0312 8.16797 12.5703 8.94141C12.1094 9.71484 11.4336 10.3047 10.543 10.7109C9.65234 11.1094 8.5625 11.3086 7.27344 11.3086Z" fill="#A3E63C"/>
<path d="M22.4141 11.3086H17.8555V9.46875H22.4141C23.2969 9.46875 24.0117 9.32812 24.5586 9.04688C25.1055 8.76562 25.5039 8.375 25.7539 7.875C26.0117 7.375 26.1406 6.80469 26.1406 6.16406C26.1406 5.57812 26.0117 5.02734 25.7539 4.51172C25.5039 3.99609 25.1055 3.58203 24.5586 3.26953C24.0117 2.94922 23.2969 2.78906 22.4141 2.78906H18.3828V18H16.1211V0.9375H22.4141C23.7031 0.9375 24.793 1.16016 25.6836 1.60547C26.5742 2.05078 27.25 2.66797 27.7109 3.45703C28.1719 4.23828 28.4023 5.13281 28.4023 6.14062C28.4023 7.23438 28.1719 8.16797 27.7109 8.94141C27.25 9.71484 26.5742 10.3047 25.6836 10.7109C24.793 11.1094 23.7031 11.3086 22.4141 11.3086Z" fill="white"/>
</svg>
